<svg xmlns="http://www.w3.org/2000/svg" version="1.1" width="600px" height="600px"
  viewBox="0 0 200 200" style="overflow:hidden!important;">
  <defs id="SvgjsDefs1007">
    <radialGradient id="SvgjsRadialGradient2904" cx="100" cy="114" r="41"
      gradientUnits="userSpaceOnUse" class="svga-on-canvas-facehighlight-gradient-single-0">
      <stop id="SvgjsStop2905" stop-opacity="0.5" stop-color="#ffe2d6" offset="0" />
      <stop id="SvgjsStop2906" stop-opacity="0" stop-color="#ffd0bc" offset="0.9" />
    </radialGradient>
    <radialGradient id="SvgjsRadialGradient2908" cx="100" cy="54" r="37"
      gradientUnits="userSpaceOnUse" class="svga-on-canvas-facehighlight-gradient-single-1">
      <stop id="SvgjsStop2909" stop-opacity="0.5" stop-color="#ffe2d6" offset="0" />
      <stop id="SvgjsStop2910" stop-opacity="0" stop-color="#ffd0bc" offset="0.9" />
    </radialGradient>
    <linearGradient id="SvgjsLinearGradient3131" x1="100" y1="142" x2="100" y2="139"
      gradientUnits="userSpaceOnUse" class="svga-on-canvas-mouth-gradient-single-0">
      <stop id="SvgjsStop3132" stop-opacity="1" stop-color="#f7c1aa" offset="0.1" />
      <stop id="SvgjsStop3133" stop-opacity="1" stop-color="#f0b399" offset="1" />
    </linearGradient>
    <linearGradient id="SvgjsLinearGradient3244" x1="100" y1="70" x2="100" y2="108"
      gradientUnits="userSpaceOnUse" class="svga-on-canvas-glasses-gradient-single-0">
      <stop id="SvgjsStop3245" stop-opacity="1" stop-color="#0d170a" offset="0" />
      <stop id="SvgjsStop3246" stop-opacity="0.5" stop-color="#0d170a" offset="1" />
    </linearGradient>
    <linearGradient id="SvgjsLinearGradient3258" x1="128" y1="106" x2="128" y2="69"
      gradientUnits="userSpaceOnUse" class="svga-on-canvas-glasses-gradient-single-1">
      <stop id="SvgjsStop3259" stop-opacity="0.95" stop-color="#26120b" offset="0" />
      <stop id="SvgjsStop3260" stop-opacity="1" stop-color="#26120b" offset="1" />
    </linearGradient>
    <linearGradient id="SvgjsLinearGradient3262" x1="72" y1="106" x2="72" y2="69"
      gradientUnits="userSpaceOnUse" class="svga-on-canvas-glasses-gradient-single-2">
      <stop id="SvgjsStop3263" stop-opacity="0.95" stop-color="#26120b" offset="0" />
      <stop id="SvgjsStop3264" stop-opacity="1" stop-color="#26120b" offset="1" />
    </linearGradient>
    <radialGradient id="SvgjsRadialGradient3353" cx="125.379" cy="82.93" r="12.84"
      gradientTransform="matrix(-1.0592 4.000000e-004 -4.000000e-004 0.9318 206.5112 5.1767)"
      gradientUnits="userSpaceOnUse" class="svga-on-canvas-eyesback-gradient-left-0">
      <stop id="SvgjsStop3354" stop-opacity="1" stop-color="#ffffff" offset="0" />
      <stop id="SvgjsStop3355" stop-opacity="1" stop-color="#fdfefe" offset="0.544" />
      <stop id="SvgjsStop3356" stop-opacity="1" stop-color="#f6f8f9" offset="0.74" />
      <stop id="SvgjsStop3357" stop-opacity="1" stop-color="#eaeff2" offset="0.879" />
      <stop id="SvgjsStop3358" stop-opacity="1" stop-color="#d9e3e8" offset="0.992" />
      <stop id="SvgjsStop3359" stop-opacity="1" stop-color="#d8e2e7" offset="1" />
    </radialGradient>
    <radialGradient id="SvgjsRadialGradient3361" cx="125.001" cy="82.93" r="12.841"
      gradientTransform="matrix(1.0592 4.000000e-004 4.000000e-004 0.9318 -6.5112 5.1767)"
      gradientUnits="userSpaceOnUse" class="svga-on-canvas-eyesback-gradient-right-0">
      <stop id="SvgjsStop3362" stop-opacity="1" stop-color="#ffffff" offset="0" />
      <stop id="SvgjsStop3363" stop-opacity="1" stop-color="#fdfefe" offset="0.544" />
      <stop id="SvgjsStop3364" stop-opacity="1" stop-color="#f6f8f9" offset="0.74" />
      <stop id="SvgjsStop3365" stop-opacity="1" stop-color="#eaeff2" offset="0.879" />
      <stop id="SvgjsStop3366" stop-opacity="1" stop-color="#d9e3e8" offset="0.992" />
      <stop id="SvgjsStop3367" stop-opacity="1" stop-color="#d8e2e7" offset="1" />
    </radialGradient>
    <radialGradient id="SvgjsRadialGradient3369" cx="125.379" cy="82.93" r="12.84"
      gradientTransform="matrix(-1.0592 4.000000e-004 -4.000000e-004 0.9318 206.5112 5.1767)"
      gradientUnits="userSpaceOnUse" class="svga-on-canvas-eyesfront-gradient-left-0">
      <stop id="SvgjsStop3370" stop-opacity="1" stop-color="#ffffff" offset="0" />
      <stop id="SvgjsStop3371" stop-opacity="1" stop-color="#fdfefe" offset="0.544" />
      <stop id="SvgjsStop3372" stop-opacity="1" stop-color="#f6f8f9" offset="0.74" />
      <stop id="SvgjsStop3373" stop-opacity="1" stop-color="#eaeff2" offset="0.879" />
      <stop id="SvgjsStop3374" stop-opacity="1" stop-color="#d9e3e8" offset="0.992" />
      <stop id="SvgjsStop3375" stop-opacity="1" stop-color="#d8e2e7" offset="1" />
    </radialGradient>
    <radialGradient id="SvgjsRadialGradient3379" cx="123.218" cy="81.096" fx="133.802" fy="77.197"
      r="17.898" gradientTransform="matrix(0.9998 0.0183 0.0166 -0.7038 -47.7588 136.6255)"
      gradientUnits="userSpaceOnUse" class="svga-on-canvas-eyesfront-gradient-left-3">
      <stop id="SvgjsStop3380" stop-opacity="1" stop-color="#f0b399" offset="0" />
      <stop id="SvgjsStop3381" stop-opacity="0.3" stop-color="#f0b399" offset="0.7" />
      <stop id="SvgjsStop3382" stop-opacity="0" stop-color="#ffd0bc" offset="1" />
    </radialGradient>
    <radialGradient id="SvgjsRadialGradient3384" cx="79.496" cy="81.496" r="23.208"
      gradientTransform="matrix(1.0971 -0.0499 0.0576 0.9543 -20.1632 27.912)"
      gradientUnits="userSpaceOnUse" class="svga-on-canvas-eyesfront-gradient-left-4">
      <stop id="SvgjsStop3385" stop-opacity="0" stop-color="#000000" offset="0.9" />
      <stop id="SvgjsStop3386" stop-opacity="0.2" stop-color="#000000" offset="1" />
    </radialGradient>
    <radialGradient id="SvgjsRadialGradient3390" cx="125.001" cy="82.93" r="12.841"
      gradientTransform="matrix(1.0592 4.000000e-004 4.000000e-004 0.9318 -6.5112 5.1767)"
      gradientUnits="userSpaceOnUse" class="svga-on-canvas-eyesfront-gradient-right-0">
      <stop id="SvgjsStop3391" stop-opacity="1" stop-color="#ffffff" offset="0" />
      <stop id="SvgjsStop3392" stop-opacity="1" stop-color="#fdfefe" offset="0.544" />
      <stop id="SvgjsStop3393" stop-opacity="1" stop-color="#f6f8f9" offset="0.74" />
      <stop id="SvgjsStop3394" stop-opacity="1" stop-color="#eaeff2" offset="0.879" />
      <stop id="SvgjsStop3395" stop-opacity="1" stop-color="#d9e3e8" offset="0.992" />
      <stop id="SvgjsStop3396" stop-opacity="1" stop-color="#d8e2e7" offset="1" />
    </radialGradient>
    <radialGradient id="SvgjsRadialGradient3400" cx="122.818" cy="81.096" fx="133.402" fy="77.197"
      r="17.898" gradientTransform="matrix(-0.9998 0.0183 -0.0166 -0.7038 246.9601 136.6328)"
      gradientUnits="userSpaceOnUse" class="svga-on-canvas-eyesfront-gradient-right-3">
      <stop id="SvgjsStop3401" stop-opacity="1" stop-color="#f0b399" offset="0" />
      <stop id="SvgjsStop3402" stop-opacity="0.3" stop-color="#f0b399" offset="0.7" />
      <stop id="SvgjsStop3403" stop-opacity="0" stop-color="#ffd0bc" offset="1" />
    </radialGradient>
    <radialGradient id="SvgjsRadialGradient3405" cx="79.859" cy="81.511" r="23.208"
      gradientTransform="matrix(-1.0971 -0.0499 -0.0576 0.9543 220.163 27.9157)"
      gradientUnits="userSpaceOnUse" class="svga-on-canvas-eyesfront-gradient-right-4">
      <stop id="SvgjsStop3406" stop-opacity="0" stop-color="#000000" offset="0.9" />
      <stop id="SvgjsStop3407" stop-opacity="0.2" stop-color="#000000" offset="1" />
    </radialGradient>
    <radialGradient id="SvgjsRadialGradient3412" cx="-568.659" cy="-521.042" r="59.751"
      gradientTransform="matrix(0.096 -0.0248 0.0245 0.0961 141.2814 119.9893)"
      gradientUnits="userSpaceOnUse" class="svga-on-canvas-eyesiris-gradient-left-1">
      <stop id="SvgjsStop3413" stop-opacity="1" stop-color="#ffffff" offset="0" />
      <stop id="SvgjsStop3414" stop-opacity="0" stop-color="#ffffff" offset="1" />
    </radialGradient>
    <radialGradient id="SvgjsRadialGradient3416" cx="-582.838" cy="-519.099" r="59.745"
      gradientTransform="matrix(0.0991 8.856319e-004 -0.0011 0.0991 131.1134 135.9855)"
      gradientUnits="userSpaceOnUse" class="svga-on-canvas-eyesiris-gradient-left-2">
      <stop id="SvgjsStop3417" stop-opacity="1" stop-color="#ffffff" offset="0" />
      <stop id="SvgjsStop3418" stop-opacity="0" stop-color="#ffffff" offset="1" />
    </radialGradient>
    <linearGradient id="SvgjsLinearGradient3422" x1="122.67" y1="88.268" x2="123.606" y2="87.152"
      gradientTransform="matrix(1 0 0 1 -52 0)" gradientUnits="userSpaceOnUse"
      class="svga-on-canvas-eyesiris-gradient-left-5">
      <stop id="SvgjsStop3423" stop-opacity="1" stop-color="#ffffff" offset="0" />
      <stop id="SvgjsStop3424" stop-opacity="0" stop-color="#ffffff" offset="1" />
    </linearGradient>
    <linearGradient id="SvgjsLinearGradient3426" x1="127.212" y1="82.296" x2="126.463" y2="83.189"
      gradientTransform="matrix(1 0 0 1 -52 0)" gradientUnits="userSpaceOnUse"
      class="svga-on-canvas-eyesiris-gradient-left-6">
      <stop id="SvgjsStop3427" stop-opacity="1" stop-color="#ffffff" offset="0" />
      <stop id="SvgjsStop3428" stop-opacity="0" stop-color="#ffffff" offset="1" />
    </linearGradient>
    <linearGradient id="SvgjsLinearGradient3430" x1="129.636" y1="79.822" x2="127.91" y2="81.879"
      gradientTransform="matrix(1 0 0 1 -52 0)" gradientUnits="userSpaceOnUse"
      class="svga-on-canvas-eyesiris-gradient-left-7">
      <stop id="SvgjsStop3431" stop-opacity="1" stop-color="#ffffff" offset="0" />
      <stop id="SvgjsStop3432" stop-opacity="0" stop-color="#ffffff" offset="1" />
    </linearGradient>
    <radialGradient id="SvgjsRadialGradient3435" cx="-568.654" cy="-521.042" r="59.752"
      gradientTransform="matrix(0.096 -0.0248 0.0245 0.0961 193.2804 119.9894)"
      gradientUnits="userSpaceOnUse" class="svga-on-canvas-eyesiris-gradient-right-1">
      <stop id="SvgjsStop3436" stop-opacity="1" stop-color="#ffffff" offset="0" />
      <stop id="SvgjsStop3437" stop-opacity="0" stop-color="#ffffff" offset="1" />
    </radialGradient>
    <radialGradient id="SvgjsRadialGradient3439" cx="-582.833" cy="-519.102" r="59.747"
      gradientTransform="matrix(0.0991 8.856319e-004 -0.0011 0.0991 183.1126 135.9856)"
      gradientUnits="userSpaceOnUse" class="svga-on-canvas-eyesiris-gradient-right-2">
      <stop id="SvgjsStop3440" stop-opacity="1" stop-color="#ffffff" offset="0" />
      <stop id="SvgjsStop3441" stop-opacity="0" stop-color="#ffffff" offset="1" />
    </radialGradient>
    <linearGradient id="SvgjsLinearGradient3445" x1="122.67" y1="88.268" x2="123.606" y2="87.152"
      gradientUnits="userSpaceOnUse" class="svga-on-canvas-eyesiris-gradient-right-5">
      <stop id="SvgjsStop3446" stop-opacity="1" stop-color="#ffffff" offset="0" />
      <stop id="SvgjsStop3447" stop-opacity="0" stop-color="#ffffff" offset="1" />
    </linearGradient>
    <linearGradient id="SvgjsLinearGradient3449" x1="127.212" y1="82.296" x2="126.463" y2="83.189"
      gradientUnits="userSpaceOnUse" class="svga-on-canvas-eyesiris-gradient-right-6">
      <stop id="SvgjsStop3450" stop-opacity="1" stop-color="#ffffff" offset="0" />
      <stop id="SvgjsStop3451" stop-opacity="0" stop-color="#ffffff" offset="1" />
    </linearGradient>
    <linearGradient id="SvgjsLinearGradient3453" x1="129.636" y1="79.822" x2="127.91" y2="81.879"
      gradientUnits="userSpaceOnUse" class="svga-on-canvas-eyesiris-gradient-right-7">
      <stop id="SvgjsStop3454" stop-opacity="1" stop-color="#ffffff" offset="0" />
      <stop id="SvgjsStop3455" stop-opacity="0" stop-color="#ffffff" offset="1" />
    </linearGradient>
    <linearGradient id="SvgjsLinearGradient3506" x1="100" y1="171" x2="100" y2="131"
      gradientUnits="userSpaceOnUse" class="svga-on-canvas-chinshadow-gradient-single-0">
      <stop id="SvgjsStop3507" stop-opacity="0.8" stop-color="#f0b399" offset="0" />
      <stop id="SvgjsStop3508" stop-opacity="1" stop-color="#d17f5b" offset="0.7" />
    </linearGradient>
  </defs>
  <g id="svga-group-wrapper">
    <g id="svga-group-backs-single">
      <path id="SvgjsPath3174" d="M225 225H-25V-25h250V225z" fill="#009ac3" stroke-width="none"
        opacity="1" stroke="none" />
    </g>
    <g id="svga-group-humanwrap-move" transform="matrix(1,0,0,1,0,0)">
      <g id="svga-group-humanwrap"
        transform="matrix(0.8499995000000001,0,0,0.8499995000000001,14.979301542071454,17.207825727948887)">
        <g id="svga-group-hair-back-move" transform="matrix(1,0,0,1,0,0)">
          <g id="svga-group-hair-back" transform="matrix(1,0,0,1,0,0)">
            <path id="SvgjsPath3528" d="M100.5,100.5h-1v-1h1V100.5z" fill="#080806"
              stroke-width="none" opacity="1" />
          </g>
        </g>
        <g id="svga-group-humanbody-single">
          <path id="SvgjsPath2911"
            d="M195.417 199.778c-2.196-4.746-8.195-11.779-14.86-13.722 -8.239-2.403-26.837-5.308-33.733-6.923 -5.528-1.296-16.662-11.294-20.564-14.65 -0.7-0.6-1.273-1.839-1.287-2.76 -0.139-10.864 4.195-39.724 4.195-39.724H100 70.833c0 0 4.334 28.859 4.193 39.724 -0.011 0.921-0.587 2.16-1.285 2.76 -3.902 3.356-15.036 13.354-20.564 14.65 -6.897 1.615-25.495 4.619-33.733 7.022 -6.667 1.942-12.664 8.876-14.86 13.622 -3.708 8.008-4.584 22.5-4.584 35h100 100C200 222.278 199.123 207.786 195.417 199.778z"
            fill="#ffd0bc" stroke-width="none" opacity="1" stroke="none" />
          <path id="SvgjsPath2912"
            d="M159.156 184.058c24.342 3.542 34.586 8.708 37.794 50.721H200c0-12.5-0.877-26.992-4.583-35 -2.196-4.746-8.195-11.779-14.86-13.722 -8.239-2.403-26.837-5.308-33.733-6.923 -5.528-1.296-18.242-12.069-21.643-16.35 3.36 4.704 12.791 15.605 21.054 18.46C150.188 182.61 153.48 183.232 159.156 184.058zM53.766 181.244c8.263-2.854 17.693-13.756 21.054-18.46 -3.4 4.28-16.114 15.054-21.643 16.35 -6.896 1.615-25.494 4.619-33.733 7.022 -6.665 1.942-12.664 8.876-14.86 13.622 -3.706 8.008-4.583 22.5-4.583 35h3.05c3.188-41.744 13.475-47.183 37.794-50.721C46.52 183.232 49.813 182.61 53.766 181.244z"
            fill="#ffe2d6" stroke-width="none" opacity="1" stroke="none" />
          <path id="SvgjsPath2913"
            d="M95.646 197.62c0 0-5.074-1.609-7.083-2.379 -10.449-4.009-44.395-6.607-44.395-6.607s35.754 1.419 43.644 2.779c-0.458-4.767-3.017-20.004-3.017-20.004s5.149 16.815 6.409 21.057C91.878 194.734 95.646 197.62 95.646 197.62zM106.445 196.278c-0.089 0.073-0.191 0.168-0.302 0.268C106.256 196.461 106.358 196.372 106.445 196.278zM95.646 197.62c0 0 2.893 2.992 4.347 3.03 1.91 0.051 4.828-2.899 6.151-4.104 -1.265 0.957-4.159 1.391-5.31 1.436C99.504 198.033 95.646 197.62 95.646 197.62zM116.664 190.101c-1.545 0.248-4.386 0.789-4.386 0.789l2.287-14.89c-0.646 3.071-4.474 16.211-8.12 20.278 1.91-1.616 6.158-2.391 8.324-2.704 10.236-1.484 10.232-1.483 41.062-4.94C155.831 188.634 126.76 188.479 116.664 190.101z"
            fill="#f0b399" stroke-width="none" opacity="1" stroke="none" />
          <path id="SvgjsPath2914"
            d="M195.417 199.778c-2.196-4.746-8.195-11.779-14.86-13.722 -8.239-2.403-26.837-5.308-33.733-6.923 -5.528-1.296-16.662-11.294-20.564-14.65 -0.7-0.6-1.273-1.839-1.287-2.76 -0.139-10.864 4.195-39.724 4.195-39.724H100 70.833c0 0 4.334 28.859 4.193 39.724 -0.011 0.921-0.587 2.16-1.285 2.76 -3.902 3.356-15.036 13.354-20.564 14.65 -6.897 1.615-25.495 4.619-33.733 7.022 -6.667 1.942-12.664 8.876-14.86 13.622 -3.708 8.008-4.584 22.5-4.584 35h100 100C200 222.278 199.123 207.786 195.417 199.778z"
            fill="none" stroke="#d17f5b" stroke-width="1.5" opacity="1" />
        </g>
        <g id="svga-group-chinshadow-single">
          <path id="SvgjsPath3505"
            d="M100.002 170.866c14.133 0 19-4.815 24.219-9.24 -0.068-6.741 1.494-19.936 2.735-29.278 -15.658-2.196-38.256-2.195-53.914 0 1.241 9.342 2.802 22.531 2.733 29.272C80.999 166.047 85.863 170.866 100.002 170.866z"
            fill="url(#SvgjsLinearGradient3506)" opacity="1" />
        </g>
        <g id="svga-group-clothes-single">
          <path id="SvgjsPath3170"
            d="M111.806 235.888c-19.135 0-41.455-0.074-68.233-0.229l-23.679-0.128c-14.298-0.078-15.141-0.094-16.887-0.094l-4.899 0.007c-4.571-41.875 14.41-52.87 43.762-56.708 7.789-1.097 15.449-3.097 21.459-6.972 16.327 22.243 64.811 17.562 73.103-0.629 1.39 0.53 2.539 1.215 3.977 1.734 4.666 3.433 11.072 5.836 17.628 6.199 26.008 1.441 44.419 12.996 44.057 54.64 0.003 0.165 0.004 1.175-0.013 1.49 -12.513 0-17.206 0.121-27.034 0.262 -13.331 0.19-29.923 0.427-63.229 0.427C111.813 235.888 111.81 235.888 111.806 235.888z"
            fill="#fb5763" stroke-width="none" opacity="1" stroke="none" />
          <path id="SvgjsPath3171"
            d="M201.055 234.64c-0.41-7.385-4.064-28.058-10.36-37.541 -12.482-18.805-42.26-12.206-49.132-19.693 -4.986 10.159-24.975 16.595-31.594 17.54 19.181-6.36 27.237-10.959 30.42-21.87 6.405 8.33 41.074 1.971 54.717 24.331C199.101 203.954 202.9 224.793 201.055 234.64zM55.811 177.628c1.357-0.315 2.034-1.249 3.381-1.614l-1.426-1.891c-9.049 7.052-42.909 2.645-54.519 24.036 -3.659 6.741-6.127 22.788-4.192 36.439 0.537-8.384 0.799-26.314 7.095-35.798 11.324-17.06 31.974-12.553 47.619-19.775 6.983 8.6 17.888 12.828 28.984 14.577C68.832 189.971 60.85 183.84 55.811 177.628z"
            fill="#ff727c" stroke-width="none" opacity="1" stroke="none" />
          <path id="SvgjsPath3172"
            d="M135.31 173.244c-5.532 11.514-47.35 24.923-70.93 0.879 -1.466 0.622-5.852 2.112-5.852 2.112 17.176 23.386 67.511 23.534 80.909-0.114C139.378 176.098 136.672 173.936 135.31 173.244z"
            fill="#ec3a47" stroke-width="none" opacity="1" stroke="none" />
          <path id="SvgjsPath3173"
            d="M136.38 171.002c-9.413 18.822-58.397 21.485-73.012 0.632 -5.337 1.578-10.469 4.941-15.636 5.782C16.812 182.021-6.046 184.335-2 235.552c9.94 0-6.611-0.065 45.571 0.215 123.59 0.71 119.562-0.461 158.606-0.461 0.029-0.14 0.015-1.452 0.021-1.596 2.096-56.436-30.852-53.104-53.12-56.995 -3.144-0.718-6.066-2.773-8.635-3.945C139.024 172.121 137.818 171.538 136.38 171.002zM63.014 172.265c12.974 23.392 64.219 18.699 74.113 0.101 1.2 0.504 1.507 0.704 2.898 1.197 -10.248 21.489-60.942 28.337-81.677 1.163C58.494 174.685 61.552 172.813 63.014 172.265zM-0.845 234.778c-2.421-26.431 1.797-48.043 32.78-53.345 10.276-1.896 16.557-1.962 25.384-5.794 16.763 27.405 72.098 23.158 83.598-1.305 1.652 1.409 4.228 3.03 7.405 3.785 18.098 4.299 54.838-0.894 52.898 56.658C147.163 234.075 102.355 232.433-0.845 234.778z"
            fill="#cd0a18" stroke-width="none" opacity="1" stroke="none" />
        </g>
        <g id="svga-group-head" transform="matrix(1,0,0,1,0,0)">
          <g id="svga-group-ears-left-move" transform="matrix(1,0,0,1,0,0)">
            <g id="svga-group-ears-left" transform="matrix(1,0,0,1,0,0)">
              <path id="SvgjsPath3498"
                d="M47.34 82.506c-1.378-2.405-9.403-6.675-11.855-6.501 -4.229 0.299-5.137 5.269-5.446 7.648 -0.609 4.696 0.645 10 1.485 13.201 0.687 2.615 2.874 7.578 4.214 9.883 1.197 2.062 4.145 5.792 5.733 7.525 1.398 1.529 4.73 4.311 7.248 3.632 2.769-0.744 6.015-3.945 6.239-5.312C56.165 105.172 50.926 88.763 47.34 82.506z"
                fill="#ffd0bc" stroke="#d17f5b" stroke-width="1.5" opacity="1" />
              <path id="SvgjsPath3499"
                d="M42.903 99.38c-0.142-0.584 0.007-1.569 0.151-2.521 0.131-0.868 0.255-1.686 0.18-2.265 -0.284-2.169-1.888-6.29-2.936-8.524 -1.206-2.568-3.157-5.803-5.602-6.639 -1.011-0.346-2.073-0.522-2.145-0.241 -0.611 1.943-0.563 7.341-0.212 11.338 0.987 11.242 10.375 19.34 11.872 21.045 0.276 0.314 0.566 0.501 0.637 0.426 0.072-0.076-0.1-0.388-0.375-0.704 -1.477-1.692-8.314-8.684-9.27-13.098 -1.012-4.685 3-12.386 3.776-13.855 0.397 0.69 0.732 1.352 0.991 1.904 0.204 0.434 0.429 0.941 0.66 1.489 -0.456 0.767-3.656 6.36-2.489 10.836 0.431 1.651 2.379 3.778 3.67 4.362 0.71 0.321 0.978 0.801 1.287 1.355 0.359 0.645 0.765 1.374 1.946 1.903 0.24 0.108 0.457 0.151 0.649 0.151 0.333 0 0.586-0.135 0.773-0.295 0.019 0.282-0.349 2.52-0.357 2.853 -0.012 0.431 0.045 0.787 0.146 0.796 0.101 0.008 0.207-0.334 0.221-0.766 0.016-0.529 0.379-3.061 0.289-3.372 -0.264-0.923-1.073-1.964-1.93-3.068C43.994 101.407 43.122 100.284 42.903 99.38zM34.428 95.416c-2.316-7.184 1.456-13.479 1.977-14.464 0.906 0.826 1.704 1.932 2.354 3.015C38.286 84.83 34.526 90.584 34.428 95.416zM45.187 105.831c-1.069-0.479-1.427-1.12-1.774-1.742 -0.313-0.562-0.637-1.143-1.458-1.515 -0.179-0.082-0.375-0.204-0.576-0.346 -2.646-6.304 0.289-9.059 1.025-9.625 0.226 0.771 0.394 1.478 0.468 2.045 0.067 0.521-0.058 1.348-0.179 2.148 -0.149 0.992-0.305 2.018-0.144 2.681 0.239 0.989 1.137 2.146 2.005 3.263 0.771 0.993 1.562 2.015 1.832 2.849C46.271 105.757 45.905 106.155 45.187 105.831z"
                fill="#d17f5b" stroke-width="none" opacity="1" stroke="none" />
            </g>
          </g>
          <g id="svga-group-ears-right-move" transform="matrix(1,0,0,1,0,0)">
            <g id="svga-group-ears-right" transform="matrix(1,0,0,1,0,0)">
              <path id="SvgjsPath3500"
                d="M152.398 82.506c1.377-2.405 9.402-6.675 11.855-6.501 4.229 0.299 5.137 5.269 5.445 7.648 0.609 4.696-0.645 10-1.484 13.201 -0.688 2.615-2.875 7.578-4.215 9.883 -1.197 2.062-4.145 5.792-5.732 7.525 -1.398 1.529-4.73 4.311-7.248 3.632 -2.77-0.744-6.016-3.945-6.238-5.312C143.574 105.172 148.813 88.763 152.398 82.506z"
                fill="#ffd0bc" stroke="#d17f5b" stroke-width="1.5" opacity="1" />
              <path id="SvgjsPath3501"
                d="M154.902 102.491c-0.855 1.104-1.666 2.146-1.93 3.068 -0.09 0.312 0.273 2.843 0.289 3.372 0.014 0.432 0.119 0.773 0.221 0.766 0.102-0.009 0.158-0.365 0.146-0.796 -0.01-0.333-0.377-2.57-0.357-2.853 0.188 0.16 0.439 0.295 0.771 0.295 0.193 0 0.41-0.043 0.65-0.151 1.182-0.53 1.588-1.259 1.945-1.903 0.311-0.555 0.578-1.034 1.287-1.355 1.291-0.584 3.24-2.711 3.67-4.362 1.168-4.476-2.031-10.07-2.488-10.836 0.23-0.548 0.457-1.056 0.66-1.489 0.26-0.552 0.594-1.214 0.99-1.904 0.777 1.469 4.789 9.17 3.777 13.855 -0.955 4.415-7.793 11.406-9.27 13.098 -0.275 0.316-0.447 0.628-0.375 0.704 0.072 0.075 0.361-0.111 0.637-0.426 1.498-1.705 10.885-9.803 11.873-21.045 0.35-3.997 0.396-9.395-0.213-11.338 -0.072-0.281-1.135-0.104-2.145 0.241 -2.445 0.836-4.396 4.071-5.604 6.639 -1.047 2.234-2.65 6.354-2.936 8.524 -0.076 0.579 0.049 1.397 0.18 2.265 0.145 0.951 0.293 1.936 0.15 2.521C156.617 100.284 155.744 101.407 154.902 102.491zM160.979 83.966c0.65-1.083 1.449-2.188 2.355-3.015 0.52 0.986 4.291 7.28 1.977 14.464C165.211 90.584 161.453 84.83 160.979 83.966zM153.352 105.59c0.271-0.834 1.063-1.856 1.832-2.849 0.869-1.118 1.766-2.274 2.006-3.263 0.16-0.663 0.006-1.689-0.145-2.681 -0.121-0.8-0.246-1.627-0.178-2.148 0.074-0.567 0.242-1.273 0.467-2.045 0.736 0.566 3.672 3.321 1.025 9.625 -0.201 0.142-0.396 0.264-0.576 0.346 -0.82 0.372-1.145 0.953-1.457 1.515 -0.348 0.622-0.705 1.263-1.775 1.742C153.834 106.155 153.467 105.757 153.352 105.59z"
                fill="#d17f5b" stroke-width="none" opacity="1" stroke="none" />
            </g>
          </g>
          <g id="svga-group-faceshape-wrap" transform="matrix(1,0,0,1,0,0)">
            <g id="svga-group-faceshape-single">
              <path id="SvgjsPath3502"
                d="M100.002 0.867C66.384 0.921 39.082 28.71 39.134 62.948c0.008 5.438 0.704 10.709 2.002 15.733h0.001c0.012 0.054 11.542 38.834 14.02 51.571 1.382 7.104 9.796 13.505 17.265 18.729 6.967 4.876 10.529 11.885 27.58 11.885s20.613-7.009 27.58-11.885c7.468-5.225 15.883-11.625 17.265-18.729 2.479-12.737 14.009-51.518 14.02-51.571h0.002c1.298-5.023 1.994-10.295 2.002-15.733C160.923 28.71 133.62 0.921 100.002 0.867z"
                fill="#ffd0bc" stroke-width="none" opacity="1" stroke="none" />
              <path id="SvgjsPath3503"
                d="M146.772 23.236c7.478 10.415 11.917 23.391 11.898 37.461 -0.009 5.438-0.679 10.709-1.93 15.733h-0.002c-0.011 0.054-11.124 38.833-13.512 51.572 -1.335 7.104-9.471 13.505-16.668 18.729 -6.718 4.875-10.121 11.886-26.557 11.886 -16.434 0-19.842-7.011-26.557-11.886 -7.197-5.225-15.335-11.625-16.665-18.729C54.39 115.264 43.277 76.484 43.266 76.43h0c-1.252-5.023-1.922-10.295-1.931-15.733C41.314 46.631 45.75 33.66 53.224 23.247 44.412 34.011 39.111 47.85 39.134 62.948c0.008 5.438 0.704 10.709 2.002 15.733h0.001c0.012 0.054 11.542 38.834 14.02 51.571 1.382 7.104 9.796 13.505 17.265 18.729 6.967 4.876 10.529 11.885 27.58 11.885s20.613-7.009 27.58-11.885c7.468-5.225 15.883-11.625 17.265-18.729 2.479-12.737 14.009-51.518 14.02-51.571h0.002c1.298-5.023 1.994-10.295 2.002-15.733C160.894 47.846 155.589 34.002 146.772 23.236z"
                fill="#f7c1aa" stroke-width="none" opacity="1" stroke="none" />
              <path id="SvgjsPath3504"
                d="M100.002 0.867C66.384 0.921 39.082 28.71 39.134 62.948c0.008 5.438 0.704 10.709 2.002 15.733h0.001c0.012 0.054 11.542 38.834 14.02 51.571 1.382 7.104 9.796 13.505 17.265 18.729 6.967 4.876 10.529 11.885 27.58 11.885s20.613-7.009 27.58-11.885c7.468-5.225 15.883-11.625 17.265-18.729 2.479-12.737 14.009-51.518 14.02-51.571h0.002c1.298-5.023 1.994-10.295 2.002-15.733C160.923 28.71 133.62 0.921 100.002 0.867z"
                fill="none" stroke="#d17f5b" stroke-width="1.5" opacity="1" />
            </g>
          </g>
          <g id="svga-group-mouth-single-move" transform="matrix(1,0,0,1,0,0)">
            <g id="svga-group-mouth-single" transform="matrix(1,0,0,1,0,0)">
              <path id="SvgjsPath3130"
                d="M100.2 142.947c-2.832 0.144-3.644-2.753-3.644-2.753s3.931 0.565 6.991-0.353C103.548 139.842 102.692 142.822 100.2 142.947z"
                fill="url(#SvgjsLinearGradient3131)" opacity="1" />
              <path id="SvgjsPath3134"
                d="M100.488 140.76c-1.984 0.1-3.765-0.077-3.877-0.089 -0.138-0.014-0.238-0.136-0.224-0.272 0.015-0.138 0.143-0.233 0.274-0.224 0.041 0.003 4.096 0.405 6.738-0.337 0.131-0.032 0.271 0.041 0.309 0.174s-0.04 0.27-0.173 0.308C102.601 140.582 101.517 140.708 100.488 140.76z"
                fill="#d17f5b" stroke-width="none" opacity="1" stroke="none" />
              <path id="SvgjsPath3135"
                d="M82.5 130.299c0 0 12.532 1.486 16.718 1.499 4.553 0.012 19.282-1.499 19.282-1.499 -4.258 3.534-8.943 6.932-19.555 6.999C89.453 137.359 87.021 133.912 82.5 130.299z"
                fill="#ffffff" stroke-width="none" opacity="1" />
              <path id="SvgjsPath3136"
                d="M82.5 130.299c0 0 12.532 1.486 16.718 1.499 4.553 0.012 19.282-1.499 19.282-1.499 -4.258 3.534-8.943 6.932-19.555 6.999C89.453 137.359 87.021 133.912 82.5 130.299z"
                fill="none" stroke="#d17f5b" stroke-width="0.75" opacity="1" />
            </g>
          </g>
          <g id="svga-group-eyes-left-move" transform="matrix(1,0,0,1,0,0)">
            <g id="svga-group-eyes-left" transform="matrix(1,0,0,1,0,0)">
              <g id="svga-group-eyesback-left">
                <path id="SvgjsPath3352"
                  d="M83.071 89.125c-3.293-0.784-4.969 1.059-9.809 1.166 -8.057 0.177-9.938-0.618-11.199-2.638 -0.523-0.837-1.023-1.928-1.264-2.601l-0.1-4.149c1.328-3.949 19.541-4.352 25.9 1.784 0.287 0.666 0.433 1.287 0.465 1.867 -0.19 0.958-0.512 1.878-0.947 2.749C85.411 88.113 84.355 88.729 83.071 89.125z"
                  fill="url(#SvgjsRadialGradient3353)" opacity="1" />
              </g>
              <g id="svga-group-eyesiriswrapper-left" transform="matrix(1,0,0,1,0.25,0.25)">
                <g id="svga-group-eyesiriscontrol-left" transform="matrix(1,0,0,1,0,0)">
                  <g id="svga-group-eyesiris-left" transform="matrix(1,0,0,1,0,0)">
                    <path id="SvgjsPath3456"
                      d="M72.59 83.677l-4.437-1.012C68.056 83.095 68 83.54 68 83.999c0 0.459 0.057 0.905 0.154 1.334L74 83.999 72.59 83.677z"
                      fill="#ea2e2e" stroke-width="none" opacity="1" />
                    <path id="SvgjsPath3457"
                      d="M69.313 87.738c0.559 0.7 1.271 1.268 2.086 1.661l2.6-5.399L69.313 87.738z"
                      fill="#f09330" stroke-width="none" opacity="1" />
                    <path id="SvgjsPath3458"
                      d="M74 89.999c0.933 0 1.813-0.219 2.6-0.599L74 84 74 89.999z" fill="#64398e"
                      stroke-width="none" opacity="1" />
                    <path id="SvgjsPath3459"
                      d="M74 84l4.688 3.738c0.554-0.693 0.955-1.51 1.158-2.404L74 84z"
                      fill="#393b97" stroke-width="none" opacity="1" />
                    <path id="SvgjsPath3460"
                      d="M74 83.999l1.826-0.416 4.02-0.918c-0.203-0.894-0.604-1.711-1.158-2.404L74 83.999z"
                      fill="#00aa4f" stroke-width="none" opacity="1" />
                    <path id="SvgjsPath3461"
                      d="M76.6 78.598c-0.788-0.38-1.667-0.599-2.6-0.599v5.999L76.6 78.598z"
                      fill="#fae636" stroke-width="none" opacity="1" />
                    <path id="SvgjsPath3462"
                      d="M71.398 78.599c-0.814 0.393-1.527 0.961-2.086 1.662l4.687 3.738L71.398 78.599z"
                      fill="#9c2d91" stroke-width="none" opacity="1" />
                    <path id="SvgjsPath3463"
                      d="M74 83.999l5.846 1.334C79.943 84.904 80 84.458 80 83.999s-0.057-0.905-0.154-1.334l-4.02 0.918L74 83.999z"
                      fill="#ea2e2e" stroke-width="none" opacity="1" />
                    <path id="SvgjsPath3464"
                      d="M74 83.999L74 83.999 74 83.999l2.601 5.401c0.815-0.394 1.528-0.962 2.087-1.662L74 83.999 74 83.999z"
                      fill="#9b328d" stroke-width="none" opacity="1" />
                    <path id="SvgjsPath3465"
                      d="M74 84L74 84 74 84 74 84 74 84 74 84 74 84l-2.6 5.4c0.787 0.38 1.667 0.599 2.6 0.599h0L74 84 74 84z"
                      fill="#fde92b" stroke-width="none" opacity="1" />
                    <path id="SvgjsPath3466"
                      d="M74 84L74 84 74 84 74 84 74 84 74 84 74 84 74 84 74 84 74 84 74 84l-5.845 1.334c0.203 0.894 0.605 1.712 1.158 2.405L74 84 74 84z"
                      fill="#00aa4f" stroke-width="none" opacity="1" />
                    <path id="SvgjsPath3467"
                      d="M74 83.999L74 83.999 74 83.999 74 83.999 74 83.999 74 83.999 74 83.999v-6c-0.934 0-1.813 0.219-2.601 0.599L74 83.999 74 83.999z"
                      fill="#65378f" stroke-width="none" opacity="1" />
                    <path id="SvgjsPath3468"
                      d="M74 83.999L74 83.999 74 83.999l4.688-3.739c-0.559-0.7-1.272-1.269-2.087-1.662L74 83.999 74 83.999z"
                      fill="#ec9236" stroke-width="none" opacity="1" />
                    <path id="SvgjsPath3469"
                      d="M74 83.999L74 83.999l-4.688-3.739c-0.554 0.693-0.955 1.511-1.158 2.404l4.436 1.013L74 83.999z"
                      fill="#393b97" stroke-width="none" opacity="1" />
                    <path id="SvgjsPath3470"
                      d="M74 77.999c3.314 0 6 2.686 6 6s-2.686 6-6 6 -6-2.686-6-6S70.686 77.999 74 77.999z"
                      fill="#000000" stroke-width="none" opacity="0.3" />
                    <path id="SvgjsPath3471"
                      d="M76.333 83.999c0 1.289-1.044 2.333-2.333 2.333s-2.333-1.045-2.333-2.333 1.044-2.333 2.333-2.333S76.333 82.71 76.333 83.999z"
                      fill="#000000" stroke-width="none" opacity="1" />
                    <path id="SvgjsPath3472"
                      d="M71.769 88.072c-0.313 0.313-0.931 0.202-1.38-0.246 -0.449-0.449-0.56-1.067-0.246-1.38 0.313-0.313 0.93-0.203 1.379 0.246C71.971 87.141 72.082 87.759 71.769 88.072z"
                      fill="#ffffff" stroke-width="none" opacity="0.6" />
                    <path id="SvgjsPath3473"
                      d="M78.539 82.884c-0.468 0.469-1.602 0.094-2.533-0.836s-1.305-2.065-0.837-2.533c0.469-0.469 1.604-0.095 2.533 0.836C78.633 81.281 79.008 82.416 78.539 82.884z"
                      fill="#ffffff" stroke-width="none" opacity="0.9" />
                  </g>
                </g>
              </g>
              <g id="svga-group-eyesfront-left">
                <path id="SvgjsPath3377"
                  d="M53.729 84.098c-0.382 3.304 9.854 22.004 20.071 22.004s19.5-5.292 19.5-22.003c0-17.789-9.283-22.001-19.5-22.001S55.626 67.704 53.729 84.098zM60.8 85.053l-0.1-4.149c1.328-3.949 19.541-4.352 25.9 1.784 1.396 3.231-0.409 5.477-3.529 6.438 -3.293-0.784-4.969 1.059-9.809 1.166 -8.057 0.177-9.938-0.618-11.199-2.638C61.54 86.816 61.04 85.726 60.8 85.053z"
                  fill="#ffd0bc" stroke-width="none" opacity="1" stroke="none" />
                <path id="SvgjsPath3378"
                  d="M59.698 82.412c0.023 7.534 7.646 13.604 17.038 13.566 9.389-0.043 16.985-6.179 16.961-13.713 -0.023-7.533-7.647-13.605-17.04-13.566C67.265 68.743 59.673 74.878 59.698 82.412zM60.8 85.053l-0.1-4.149c1.328-3.949 19.541-4.352 25.9 1.784 1.396 3.231-0.409 5.477-3.529 6.438 -3.293-0.784-4.969 1.059-9.809 1.166 -8.057 0.177-9.938-0.618-11.199-2.638C61.54 86.816 61.04 85.726 60.8 85.053z"
                  fill="url(#SvgjsRadialGradient3379)" opacity="1" />
                <path id="SvgjsPath3383"
                  d="M62.063 87.654c-0.523-0.837-1.023-1.928-1.264-2.601l-0.1-4.149c1.328-3.949 19.541-4.352 25.9 1.784 1.396 3.231-0.409 5.477-3.529 6.438 -3.293-0.784-4.969 1.059-9.809 1.166C65.206 90.469 63.324 89.673 62.063 87.654z"
                  fill="url(#SvgjsRadialGradient3384)" opacity="1" />
                <path id="SvgjsPath3387"
                  d="M89.465 81.193c-9.617-5.761-16.701-6.128-28.117-5.394C70.877 74.298 81.852 75.387 89.465 81.193z"
                  fill="#d17f5b" stroke-width="none" opacity="1" stroke="none" />
                <path id="SvgjsPath3388"
                  d="M88.23 85.283c-3.24-8.315-25.943-8.364-27.431-4.181v3.895c-1.021-1.539-1.047-1.633-1.483-3.404l-2.195 0.746c0 0 2.746-3.873 5.299-4.381C84.606 73.539 88.04 83.949 88.23 85.283zM84.743 89.42c-4.625-1.98-5.94 0.378-11.563 0.495 -8.004 0.168-9.567-0.766-11.125-2.476 0.813 2.091 1.375 3.085 10.875 3.027C78.306 90.433 81.243 88.212 84.743 89.42z"
                  fill="#000000" stroke-width="none" opacity="1" stroke="none" />
              </g>
            </g>
          </g>
          <g id="svga-group-eyes-right-move" transform="matrix(1,0,0,1,0,0)">
            <g id="svga-group-eyes-right" transform="matrix(1,0,0,1,0,0)">
              <g id="svga-group-eyesback-right">
                <path id="SvgjsPath3360"
                  d="M116.529 89.125c3.293-0.784 4.969 1.059 9.809 1.166 8.057 0.177 9.938-0.618 11.199-2.638 0.523-0.837 1.023-1.928 1.264-2.601l0.1-4.149c-1.328-3.949-19.541-4.352-25.9 1.784 -0.287 0.666-0.433 1.287-0.465 1.867 0.19 0.958 0.512 1.878 0.947 2.749C114.189 88.113 115.245 88.729 116.529 89.125z"
                  fill="url(#SvgjsRadialGradient3361)" opacity="1" />
              </g>
              <g id="svga-group-eyesiriswrapper-right" transform="matrix(1,0,0,1,-0.25,0.25)">
                <g id="svga-group-eyesiriscontrol-right" transform="matrix(1,0,0,1,0,0)">
                  <g id="svga-group-eyesiris-right" transform="matrix(1,0,0,1,0,0)">
                    <path id="SvgjsPath3474"
                      d="M124.591 83.677l-4.438-1.012c-0.098 0.43-0.153 0.875-0.153 1.334 0 0.459 0.057 0.905 0.154 1.334l5.845-1.334L124.591 83.677z"
                      fill="#ea2e2e" stroke-width="none" opacity="1" />
                    <path id="SvgjsPath3475"
                      d="M121.313 87.738c0.559 0.7 1.272 1.268 2.086 1.661L125.999 84 121.313 87.738z"
                      fill="#f09330" stroke-width="none" opacity="1" />
                    <path id="SvgjsPath3476"
                      d="M126.001 89.999c0.933 0 1.813-0.219 2.6-0.599L126 84 126.001 89.999z"
                      fill="#64398e" stroke-width="none" opacity="1" />
                    <path id="SvgjsPath3477"
                      d="M126 84l4.688 3.738c0.553-0.693 0.953-1.51 1.157-2.404L126 84z"
                      fill="#393b97" stroke-width="none" opacity="1" />
                    <path id="SvgjsPath3478"
                      d="M126 83.999l1.825-0.416 4.021-0.918c-0.204-0.894-0.604-1.711-1.157-2.404L126 83.999z"
                      fill="#00aa4f" stroke-width="none" opacity="1" />
                    <path id="SvgjsPath3479"
                      d="M128.601 78.598c-0.788-0.38-1.668-0.599-2.601-0.599v5.999L128.601 78.598z"
                      fill="#fae636" stroke-width="none" opacity="1" />
                    <path id="SvgjsPath3480"
                      d="M123.398 78.599c-0.813 0.393-1.527 0.961-2.087 1.662l4.688 3.738L123.398 78.599z"
                      fill="#9c2d91" stroke-width="none" opacity="1" />
                    <path id="SvgjsPath3481"
                      d="M126 83.999l5.846 1.334c0.098-0.43 0.154-0.875 0.154-1.334s-0.057-0.905-0.154-1.334l-4.021 0.918L126 83.999z"
                      fill="#ea2e2e" stroke-width="none" opacity="1" />
                    <path id="SvgjsPath3482"
                      d="M126 83.999L126 83.999 126 83.999l2.601 5.401c0.814-0.394 1.529-0.962 2.088-1.662L126 83.999 126 83.999z"
                      fill="#9b328d" stroke-width="none" opacity="1" />
                    <path id="SvgjsPath3483"
                      d="M126 84L126 84 126 84 126 84 126 84 126 84 126 84l-2.601 5.4c0.787 0.38 1.668 0.599 2.601 0.599h0.001L126 84 126 84z"
                      fill="#fde92b" stroke-width="none" opacity="1" />
                    <path id="SvgjsPath3484"
                      d="M125.999 84L125.999 84 125.999 84 125.999 84 125.999 84 125.999 84 125.999 84 125.999 84 125.999 84 125.999 84 125.999 84l-5.845 1.334c0.204 0.894 0.604 1.712 1.158 2.405L125.999 84 125.999 84z"
                      fill="#00aa4f" stroke-width="none" opacity="1" />
                    <path id="SvgjsPath3485"
                      d="M126 83.999L126 83.999 126 83.999 126 83.999 126 83.999 126 83.999 126 83.999v-6c-0.934 0-1.813 0.219-2.601 0.599L126 83.999 126 83.999z"
                      fill="#65378f" stroke-width="none" opacity="1" />
                    <path id="SvgjsPath3486"
                      d="M126 83.999L126 83.999 126 83.999l4.688-3.739c-0.559-0.7-1.273-1.269-2.088-1.662L126 83.999 126 83.999z"
                      fill="#ec9236" stroke-width="none" opacity="1" />
                    <path id="SvgjsPath3487"
                      d="M125.999 83.999L125.999 83.999l-4.688-3.739c-0.553 0.693-0.953 1.511-1.157 2.404l4.437 1.013L125.999 83.999z"
                      fill="#393b97" stroke-width="none" opacity="1" />
                    <path id="SvgjsPath3488"
                      d="M126 77.999c3.313 0 6 2.686 6 6s-2.687 6-6 6 -6-2.686-6-6S122.687 77.999 126 77.999z"
                      fill="#000000" stroke-width="none" opacity="0.3" />
                    <path id="SvgjsPath3489"
                      d="M128.333 83.999c0 1.289-1.044 2.333-2.333 2.333s-2.333-1.045-2.333-2.333 1.044-2.333 2.333-2.333S128.333 82.71 128.333 83.999z"
                      fill="#000000" stroke-width="none" opacity="1" />
                    <path id="SvgjsPath3490"
                      d="M123.769 88.072c-0.313 0.313-0.93 0.202-1.379-0.246 -0.449-0.449-0.561-1.067-0.246-1.38 0.313-0.313 0.93-0.203 1.379 0.246C123.971 87.141 124.081 87.759 123.769 88.072z"
                      fill="#ffffff" stroke-width="none" opacity="0.6" />
                    <path id="SvgjsPath3491"
                      d="M130.539 82.884c-0.468 0.469-1.603 0.094-2.533-0.836s-1.305-2.064-0.837-2.533c0.469-0.469 1.604-0.095 2.533 0.836C130.633 81.281 131.008 82.416 130.539 82.884z"
                      fill="#ffffff" stroke-width="none" opacity="0.9" />
                  </g>
                </g>
              </g>
              <g id="svga-group-eyesfront-right">
                <path id="SvgjsPath3398"
                  d="M125.801 62.098c-10.217 0-19.5 4.212-19.5 22.001 0 16.711 9.283 22.003 19.5 22.003s19.891-18.032 20.07-22.004C146.617 67.611 136.018 62.098 125.801 62.098zM137.537 87.654c-1.261 2.02-3.143 2.815-11.199 2.638 -4.84-0.107-6.516-1.95-9.809-1.166 -3.12-0.961-4.925-3.207-3.529-6.438 6.359-6.136 24.572-5.733 25.9-1.784l-0.1 4.149C138.561 85.726 138.061 86.816 137.537 87.654z"
                  fill="#ffd0bc" stroke-width="none" opacity="1" stroke="none" />
                <path id="SvgjsPath3399"
                  d="M122.943 68.699c-9.393-0.04-17.016 6.033-17.039 13.566 -0.025 7.535 7.572 13.67 16.961 13.713 9.391 0.037 17.014-6.033 17.037-13.566C139.928 74.878 132.336 68.743 122.943 68.699zM137.537 87.654c-1.261 2.02-3.143 2.815-11.199 2.638 -4.84-0.107-6.516-1.95-9.809-1.166 -3.12-0.961-4.925-3.207-3.529-6.438 6.359-6.136 24.572-5.733 25.9-1.784l-0.1 4.149C138.561 85.726 138.061 86.816 137.537 87.654z"
                  fill="url(#SvgjsRadialGradient3400)" opacity="1" />
                <path id="SvgjsPath3404"
                  d="M137.537 87.654c0.523-0.837 1.023-1.928 1.264-2.601l0.1-4.149c-1.328-3.949-19.541-4.352-25.9 1.784 -1.396 3.231 0.409 5.477 3.529 6.438 3.293-0.784 4.969 1.059 9.809 1.166C134.395 90.469 136.276 89.673 137.537 87.654z"
                  fill="url(#SvgjsRadialGradient3405)" opacity="1" />
                <path id="SvgjsPath3408"
                  d="M110.136 81.193c9.617-5.761 16.701-6.128 28.117-5.394C128.724 74.298 117.749 75.387 110.136 81.193z"
                  fill="#d17f5b" stroke-width="none" opacity="1" stroke="none" />
                <path id="SvgjsPath3409"
                  d="M137.181 77.957c2.553 0.508 5.299 4.381 5.299 4.381l-2.195-0.746c-0.437 1.771-0.463 1.865-1.483 3.404v-3.895c-1.487-4.183-24.19-4.134-27.431 4.181C111.561 83.949 114.994 73.539 137.181 77.957zM126.67 90.467c9.5 0.058 10.063-0.937 10.875-3.027 -1.558 1.71-3.121 2.644-11.125 2.476 -5.622-0.117-6.938-2.476-11.563-0.495C118.357 88.212 121.295 90.433 126.67 90.467z"
                  fill="#000000" stroke-width="none" opacity="1" stroke="none" />
              </g>
            </g>
          </g>
          <g id="svga-group-facehighlight-single">
            <path id="SvgjsPath2903"
              d="M141 113.974c0.035 22.622-18.292 40.994-40.938 41.025 -22.642 0.037-41.028-18.273-41.063-40.9 -0.035-22.62 18.292-41.064 40.937-41.1C122.579 72.964 140.967 91.349 141 113.974z"
              fill="url(#SvgjsRadialGradient2904)" opacity="1" />
            <path id="SvgjsPath2907"
              d="M137.5 53.999c0 20.711-16.789 37.5-37.499 37.5 -20.711 0-37.501-16.789-37.501-37.5s16.79-37.5 37.501-37.5C120.711 16.499 137.5 33.288 137.5 53.999z"
              fill="url(#SvgjsRadialGradient2908)" opacity="1" />
          </g>
          <g id="svga-group-eyebrows-left-move" transform="matrix(1,0,0,1,0,0)">
            <g id="svga-group-eyebrows-left-rotate" transform="matrix(1,0,0,1,0,0)">
              <g id="svga-group-eyebrows-left" transform="matrix(1,0,0,1,0,0)">
                <path id="SvgjsPath3496"
                  d="M53.149 74.996c9.743-15.115 36.491 5.148 38.018-1.191 0.299-1.271-0.407-2.015-1.564-2.492C75.982 65.807 57.955 61.18 53.149 74.996z"
                  fill="#2a232b" stroke-width="none" opacity="1" />
              </g>
            </g>
          </g>
          <g id="svga-group-eyebrows-right-move" transform="matrix(1,0,0,1,0,0)">
            <g id="svga-group-eyebrows-right-rotate" transform="matrix(1,0,0,1,0,0)">
              <g id="svga-group-eyebrows-right" transform="matrix(1,0,0,1,0,0)">
                <path id="SvgjsPath3497"
                  d="M146.851 74.996c-9.743-15.115-36.491 5.148-38.018-1.191 -0.299-1.271 0.407-2.015 1.564-2.492C124.018 65.807 142.045 61.18 146.851 74.996z"
                  fill="#2a232b" stroke-width="none" opacity="1" />
              </g>
            </g>
          </g>
          <g id="svga-group-nose-single-move" transform="matrix(1,0,0,1,0,0)">
            <g id="svga-group-nose-single" transform="matrix(1,0,0,1,0,0)">
              <path id="SvgjsPath3140"
                d="M99.084 89.999c0 0-0.887 20.454-0.765 24.946 0.035 1.275 2.489 4.617 2.322 7.054 0 0-4.788-0.349-6.345-0.898 -1.629-0.578-4.151-1.704-3.154-4.85C92.562 111.776 99.084 89.999 99.084 89.999z"
                fill="#f0b399" stroke-width="none" opacity="1" stroke="none" />
              <path id="SvgjsPath3141"
                d="M98.638 119.598c0 0-1.985-0.705-3.239-0.669 -1.142 0.035-1.306-0.726-1.191-1.158 0.116-0.433 0.507-0.701 1.61-0.407C96.921 117.658 98.638 119.598 98.638 119.598zM101.593 119.6c0 0 1.98-0.653 3.239-0.667 1.142-0.014 1.308-0.726 1.191-1.157 -0.116-0.435-0.508-0.705-1.61-0.411C103.31 117.662 101.593 119.6 101.593 119.6z"
                fill="#d17f5b" stroke-width="none" opacity="1" stroke="none" />
            </g>
          </g>
          <g id="svga-group-beardwrap" transform="matrix(1,0,0,1,0,0)">
            <g id="svga-group-beard-single-move" transform="matrix(1,0,0,1,0,0)">
              <g id="svga-group-beard-single" transform="matrix(1,0,0,1,0,0)">
                <path id="SvgjsPath3039" d="M100,18.13L100,18.13L100,18.13L100,18.13z"
                  fill="#2a232b" stroke-width="none" opacity="1" />
              </g>
            </g>
          </g>
          <g id="svga-group-mustache-single-move" transform="matrix(1,0,0,1,0,0)">
            <g id="svga-group-mustache-single" transform="matrix(1,0,0,1,0,0)">
              <path id="SvgjsPath3037" d="M100,18.13L100,18.13L100,18.13L100,18.13z" fill="#2a232b"
                stroke-width="none" opacity="1" />
            </g>
          </g>
          <g id="svga-group-hair-front" transform="matrix(1,0,0,1,0,0)">
            <path id="SvgjsPath3530"
              d="M44.974,94.895c-2.423-8.815-3.728-16.533-5.54-24.585l0.083-0.019c-0.686-1.689-3.162-15.06-3.185-15.204c-2.525-17.77,4.993-18.784,4.84-26.198c3.165,1.585,6.242,0.799,9.019-1.365c-2.918-1.499-1.997-1.736-5.872-4.095c2.731-0.472,4.326,0.165,6.646,0.454c-1.983-1.983-5.875-6.028-8.404-5.492l-0.165-0.354c3.661-2.857,8.548,3.091,12.954,1.48C55.483,3.144,79.417-0.256,85.242-2.689c7.755-2.951,15.856-9.441,21.553-10.021c-3.225,3.241-5.2,8.449-5.347,12.358c4.698-4.486,5.03-4.355,12.151-12.264c0,6.364-1.763,7.163-4.051,10.898c6.211-4.07,13.955-15.489,25.881-17.235l0.131,0.37c-4.298,2.532-7.624,6.804-9.898,12.708c2.257-2.726,5.451-5.683,8.986-6.218l0.133,0.369c-2.215,1.325-6.554,5.742-7.547,13.138c4.381-4.893,11.35-8.948,16.134-10.48l0.187,0.346c-4.392,3.573-6.153,9.828-7.146,15.146c3.08-4.58,4.872-5.624,8.747-7.548c-1.247,1.865-1.166,1.539-2.158,3.566c2.396,6.123,10.313,6.361,11.666,17.059c1.63-1.424,2.277-1.781,4.151-3.092l0.282,0.272c-1.408,2.187-2.569,6.06-3.342,8.652c2.78-2.123,7.073-3.687,10.096-4.778l0.211,0.328c-2.551,2.593-5.648,6.546-6.162,10.834c1-0.592,1.048-0.524,2.35-1.466c0,3.081,0.105,2.688,0.127,4.105c1.257-1.125,1.45-1.282,2.276-2.181c-0.183,32.362-1.845,25.912-6.317,48.466c-0.784,3.963-2.171,10.883-3.061,14.207l-6.049,1.039c1.87-22.394-0.093-17.512,1.267-31.604c2.012-20.779-14.804-37.812-37.025-32.237c-4.496,1.128-22.44,1.127-26.934,0c-24.547-6.163-33.391,8.18-36.026,33.278c-1.291,12.318-1.607,8.161,0.267,30.563L44.974,94.895z"
              fill="#080806" stroke-width="none" opacity="1" />
            <path id="SvgjsPath3531"
              d="M162.376,34.359c-0.021-1.418-0.127-1.024-0.127-4.105c-1.302,0.941-1.35,0.874-2.35,1.466c0.514-4.288,3.611-8.241,6.162-10.834l-0.211-0.328c-3.022,1.092-7.315,2.655-10.096,4.778c0.772-2.592,1.934-6.465,3.342-8.652l-0.282-0.272c-1.874,1.311-2.521,1.668-4.151,3.092c-1.353-10.697-9.27-10.936-11.666-17.059c0.992-2.027,0.911-1.701,2.158-3.566c-3.875,1.924-5.667,2.968-8.747,7.548c0.993-5.318,2.755-11.573,7.146-15.146l-0.187-0.346c-4.784,1.532-11.753,5.587-16.134,10.48c0.993-7.396,5.332-11.813,7.547-13.138l-0.133-0.369c-3.535,0.535-6.729,3.493-8.986,6.218c2.274-5.904,5.601-10.176,9.898-12.708l-0.131-0.37c-11.926,1.746-19.67,13.165-25.881,17.235c2.288-3.735,4.051-4.535,4.051-10.898c-7.121,7.909-7.453,7.778-12.151,12.264c0.146-3.909,2.122-9.118,5.347-12.358c-5.696,0.58-13.797,7.069-21.553,10.021C79.417-0.256,55.483,3.144,55.35,19.518c-4.406,1.611-9.293-4.337-12.954-1.48l0.165,0.354c2.529-0.537,6.421,3.508,8.404,5.492c-2.319-0.289-3.915-0.926-6.646-0.454c3.875,2.359,2.954,2.596,5.872,4.095c-2.777,2.164-5.854,2.95-9.019,1.365c0.153,7.415-7.366,8.429-4.84,26.198c0.023,0.144,2.499,13.515,3.185,15.204l-0.083,0.019c1.812,8.052,3.117,15.771,5.54,24.585L45,94.899c-0.661-16.442-11.02-39.816-4.941-54.788C40.852,38.156,43.92,33,43.92,33s9.627-1.264,10.08-5c0,0-2-1-3-2c2,1,2-2,4-1c0-2-3-1-3-3c2,0,4,0,6,2c-1-5,0-10,4-13C72,3,85,4,95-4c-1,5-2,10-2,15c6-3,8-9,13-13c1,4-1,9-1,13c3-7,7-14,16-16c-4,4-4,10-4,15c0-4,4-6,5-9c0,4,0,8,0,12c2-6,6-9,11-11c-4,4-3,8-4,13c3-3,7-4,10-7c3,6,1,11,1,17c1-5,6-8,9-12c1,5,1,10,0,15c1-3,3-5,4-8c0,4.86-0.668,9.062-1.98,13.142c1.255-1.452,3.304-2.111,3.98-4.142c0,4.325,0,7.904,0,12.027c0.58-1.192,2.29-1.608,3-3.027c-0.854,3.413-0.254,6.103-0.059,9.302c0.371-1.96,2.258-3.162,2.94-4.967c0.04-0.778,0.081-1.557,0.118-2.335c0.229,0.912,0.135,1.664-0.118,2.335c-0.912,17.771-2.593,35.516-6.256,52.628l0.648-0.111c0.89-3.324,2.276-10.244,3.061-14.207c4.473-22.554,6.135-16.104,6.317-48.466C163.826,33.078,163.633,33.235,162.376,34.359z"
              fill="#171714" stroke-width="none" opacity="1" />
            <path id="SvgjsPath3532"
              d="M167.779,19.695c-4.949,0.834-8.406,2.438-11.05,4.25c0.385-1.005,2.193-6.67,4.14-9.05c-2.99,1.333-4.72,2.763-5.72,3.51c0-1.032-0.398-2.224-0.59-2.84c-0.189-0.515-0.348-1.117-1.271-2.62c-5.171-7.296-5.494-4.244-9.729-9.83c0.772-1.811,1.889-3.572,3.29-5.03c-3.908,0.555-5.965,2.075-8.44,4.51c-0.04,0.04-0.07,0.08-0.1,0.12c1.551-6.126,4.59-11.437,10.56-13.43c-7.384-0.268-16.525,5.192-21.12,10.64c1.984-6.381,4.646-9.421,8.601-12.25c-2.846-0.421-5.635,0.742-7.841,2.58c2.541-4.397,6.317-7.899,9.351-9.53c-0.431-0.01-0.94-0.04-1.5,0c-0.777-0.199-5.479,0.566-7.16,1.29c-8.329,3.252-14.389,10.822-16.99,13.28c1.916-3.098,2.01-5.298,1.66-8.52c-0.655,0.563-11.615,11.055-11.75,11.19c0.777-4.309,2.245-6.937,5.02-10.79c-4.947-0.926-17.332,7.217-25.01,9.39c-8.044,2.179-28.004,6.723-27.09,22.7c-4.295,0.819-10.584-6.077-13.88-0.29c2.646-1.57,6.151,2.21,8.59,4.37c-1-0.163-4.343-0.948-5.96,0.13c1.894,0.735,3.55,2.932,5.89,4.1c0.03,0.01,0.06,0.02,0.09,0.04c-2.139,1.128-4.667,2.034-6.99,1.39c-0.35-0.1-0.58-0.16-0.58-0.17c-0.27-0.12-0.56-0.24-0.87-0.38h-0.01l-0.01-0.01c-0.13-0.07-0.26-0.14-0.4-0.21c0.695,5.608-7.817,10.155-6.88,22.02c0.385,7.301,4.949,29.508,10.686,44.566l0.483,0.144c-2.392-8.626-3.777-16.74-5.569-24.701c-0.156,0-3.073-15.044-3.1-15.21c-2.506-17.631,4.994-18.91,4.85-25.84c3.121,1.561,6.532,0.436,9.18-1.73c-3.118-1.551-2.453-1.988-5.68-3.95c2.163-0.374,4.803,0.483,6.62,0.6c-2.346-2.346-6.299-6.51-8.98-5.94c3.568-2.785,8.497,3.271,13.03,1.46c0-16.383,23.723-19.635,29.77-22.16c7.271-2.766,16.283-9.476,20.939-9.95c-2.44,2.458-5.02,7.901-5.02,12.58c4.834-4.638,5.31-4.615,12.16-12.22c0,6.014-2.247,7.088-4.431,10.97c6.414-3.698,14.179-15.828,26.49-17.63c-5.154,3.037-8.435,8.325-10.41,13.97c2.352-3.059,5.8-6.53,9.63-7.11c-2.009,1.202-6.861,5.782-7.72,13.93c4.345-5.114,11.586-9.346,16.47-10.91c-4.605,3.748-6.368,10.371-7.39,16.22c1.687-2.573,3.357-4.897,5.97-6.54c0.011-0.01,0.03-0.02,0.04-0.02c1.029-0.699,0.76-0.509,2.521-1.39c-0.669,1-0.731,0.87-1.79,3.04c2.426,6.377,10.523,6.413,11.729,17.47c1.857-1.647,2.441-1.944,4.42-3.33c-1.542,2.394-2.784,6.768-3.55,9.32c2.905-2.485,8.279-4.33,10.54-5.15c-3,3.05-5.913,7.096-6.26,11.36c0.614-0.413,1.394-0.74,2.39-1.46c0,2.724,0.13,2.36,0.13,4.16c0.526-0.481,1.72-1.51,2.271-2.11c-0.196,31.716-1.88,25.564-6.311,47.91c-1.658,8.376-2.533,12.25-3.081,14.283l0.428-0.087c3.584-10.751,10.737-35.042,10.414-47.616c-0.033-4.7-1.059-14.5-1.11-15.5c-0.021,0.018-2.084,1.97-2.11,1.97c0-0.511-0.21-2.685-0.21-3.87c-0.353,0.271-1.095,0.778-2.09,1.36C161.758,26.981,163.857,24.394,167.779,19.695z"
              fill="#000000" stroke-width="none" opacity="1" />
          </g>
          <g id="svga-group-glasses-single-move" transform="matrix(1,0,0,1,0,0)">
            <g id="svga-group-glasses-single" transform="matrix(1,0,0,1,0,0)">
              <path id="SvgjsPath3296" d="M100,18.13L100,18.13L100,18.13L100,18.13z" fill="#26120b"
                stroke-width="none" opacity="1" />
            </g>
          </g>
        </g>
      </g>
    </g>
  </g>
</svg>